<svg xmlns="http://www.w3.org/2000/svg" version="1.1" xmlns:xlink="http://www.w3.org/1999/xlink" xmlns:svgjs="http://svgjs.dev/svgjs" id="BgenPttrnSvgRootPreview" width="100%" height="100%"><defs><pattern x="0" y="0" width="1" height="1" patternUnits="userSpaceOnUse" id="BgenPttrnLayer1"><g id="PatternRootContent1"><g id="BgenPttrnLayer1background"><rect width="1" height="1" id="BgenPttrnBackground1" class="color_1 fill_color_1" fill="#b3c6e3"></rect></g></g></pattern><pattern x="0" y="0" width="196" height="114" patternUnits="userSpaceOnUse" id="BgenPttrnLayer2" patternTransform="matrix(3.526982781544377e-17,0.576,-0.576,3.526982781544377e-17,0,0)"><g id="PatternRootContent2"><g id="BgenPttrnLayer2Element3"><use xlink:href="#BgenPttrnElement3" x="-114.22966003417969" y="54" transform="translate(-49, 114) scale(1) translate(49, -114) rotate(90, -49, 114)"></use><use xlink:href="#BgenPttrnElement3" x="-114.22966003417969" y="-60" transform="translate(-49, 0) scale(1) translate(49, 0) rotate(90, -49, 0)"></use><use xlink:href="#BgenPttrnElement3" x="-16.229660034179688" y="-3" transform="translate(49, 57) scale(1) translate(-49, -57) rotate(90, 49, 57)"></use><use xlink:href="#BgenPttrnElement3" x="-16.229660034179688" y="-117" transform="translate(49, -57) scale(1) translate(-49, 57) rotate(90, 49, -57)"></use><use xlink:href="#BgenPttrnElement3" x="-16.229660034179688" y="111" transform="translate(49, 171) scale(1) translate(-49, -171) rotate(90, 49, 171)"></use><use xlink:href="#BgenPttrnElement3" x="81.77033996582031" y="54" transform="translate(147, 114) scale(1) translate(-147, -114) rotate(90, 147, 114)"></use><use xlink:href="#BgenPttrnElement3" x="81.77033996582031" y="-60" transform="translate(147, 0) scale(1) translate(-147, 0) rotate(90, 147, 0)"></use><use xlink:href="#BgenPttrnElement3" x="179.7703399658203" y="-3" transform="translate(245, 57) scale(1) translate(-245, -57) rotate(90, 245, 57)"></use><use xlink:href="#BgenPttrnElement3" x="179.7703399658203" y="-3" transform="translate(245, 57) scale(1) translate(-245, -57) rotate(90, 245, 57)"></use></g></g></pattern><symbol id="BgenPttrnElement3"><g class="color_4 fill_color_4" fill="#828282"><g transform="matrix(1,0,0,1,0,0)"><path d="M47.354,40L63.032,26.698999404907227L65.223,7.450579886381092e-8Z"></path><path d="M83.106,39.99399948120117L67.423,26.698999404907227L65.223,7.450579886381092e-8Z"></path></g><g transform="matrix(1,0,0,1,0,0)"><path d="M83.106,80L67.428,93.3010025024414L65.237,120Z"></path><path d="M47.354,80.0060043334961L63.037,93.3010025024414L65.237,120Z"></path></g><g transform="matrix(1,0,0,1,0,0)"><path d="M95.818,62.01892852783203L99.498,82.24697875976562L121.525,97.49393463134766Z"></path><path d="M77.948,92.98406982421875L97.303,86.04969787597656L121.525,97.49393463134766Z"></path></g><g transform="matrix(1,0,0,1,0,0)"><path d="M43.301,72.98107147216797L39.621,52.753021240234375L17.595,37.50606155395508Z"></path><path d="M61.172,42.015926361083984L41.817,48.9503059387207L17.595,37.50606155395508Z"></path></g><g transform="matrix(1,0,0,1,0,0)"><path d="M52.517,92.98107147216797L33.159,86.05402374267578L8.942,97.50606536865234Z"></path><path d="M34.636,62.02193069458008L30.964,82.25131225585938L8.942,97.50606536865234Z"></path></g><g transform="matrix(1,0,0,1,0,0)"><path d="M69.282,42.0189323425293L88.64,48.94597625732422L112.858,37.49394226074219Z"></path><path d="M87.163,72.97807312011719L90.836,52.748695373535156L112.858,37.49394226074219Z"></path></g></g></symbol></defs><rect width="100%" height="100%" id="BgenPttrnRctLayer1" fill="url(&quot;#BgenPttrnLayer1&quot;)"></rect><rect width="100%" height="100%" id="BgenPttrnRctLayer2" fill="url(&quot;#BgenPttrnLayer2&quot;)"></rect></svg>